<svg width="30" height="30" viewBox="0 0 30 30" fill="none" xmlns="http://www.w3.org/2000/svg">
<path d="M25.9803 12.2436C25.55 11.802 25.1084 11.3377 24.9385 10.9414C24.7687 10.5451 24.78 9.95624 24.7687 9.35608C24.7573 8.25769 24.7347 7.00076 23.8628 6.12884C22.9909 5.25691 21.7339 5.23427 20.6355 5.22294C20.0354 5.21162 19.4239 5.2003 19.0502 5.05309C18.6765 4.90588 18.1896 4.44161 17.748 4.01131C16.9667 3.26395 16.0721 2.41467 14.8944 2.41467C13.7168 2.41467 12.8222 3.26395 12.0409 4.01131C11.5992 4.44161 11.135 4.88323 10.7386 5.05309C10.3423 5.22294 9.75348 5.21162 9.15332 5.22294C8.05493 5.23427 6.798 5.25691 5.92608 6.12884C5.05416 7.00076 5.03151 8.25769 5.02018 9.35608C5.00886 9.95624 4.99754 10.5677 4.85033 10.9414C4.70312 11.3151 4.23885 11.802 3.80855 12.2436C3.06119 13.025 2.21191 13.9195 2.21191 15.0972C2.21191 16.2748 3.06119 17.1694 3.80855 17.9507C4.23885 18.3924 4.68047 18.8566 4.85033 19.253C5.02018 19.6493 5.00886 20.2381 5.02018 20.8383C5.03151 21.9367 5.05416 23.1936 5.92608 24.0655C6.798 24.9375 8.05493 24.9601 9.15332 24.9714C9.75348 24.9827 10.365 24.9941 10.7386 25.1413C11.1123 25.2885 11.5992 25.7528 12.0409 26.1831C12.8222 26.9304 13.7168 27.7797 14.8944 27.7797C16.0721 27.7797 16.9667 26.9304 17.748 26.1831C18.1896 25.7528 18.6539 25.3111 19.0502 25.1413C19.4465 24.9714 20.0354 24.9827 20.6355 24.9714C21.7339 24.9601 22.9909 24.9375 23.8628 24.0655C24.7347 23.1936 24.7573 21.9367 24.7687 20.8383C24.78 20.2381 24.7913 19.6267 24.9385 19.253C25.0857 18.8793 25.55 18.3924 25.9803 17.9507C26.7277 17.1694 27.5769 16.2748 27.5769 15.0972C27.5769 13.9195 26.7277 13.025 25.9803 12.2436ZM13.9885 9.66182C13.9885 9.42156 14.084 9.19115 14.2539 9.02126C14.4237 8.85137 14.6542 8.75593 14.8944 8.75593C15.1347 8.75593 15.3651 8.85137 15.535 9.02126C15.7049 9.19115 15.8003 9.42156 15.8003 9.66182V16.0031C15.8003 16.2433 15.7049 16.4738 15.535 16.6436C15.3651 16.8135 15.1347 16.909 14.8944 16.909C14.6542 16.909 14.4237 16.8135 14.2539 16.6436C14.084 16.4738 13.9885 16.2433 13.9885 16.0031V9.66182ZM14.8944 21.4384C14.6257 21.4384 14.363 21.3587 14.1395 21.2094C13.916 21.0601 13.7419 20.8479 13.639 20.5996C13.5362 20.3513 13.5093 20.0781 13.5617 19.8145C13.6141 19.5509 13.7435 19.3088 13.9336 19.1188C14.1236 18.9287 14.3657 18.7993 14.6293 18.7469C14.8929 18.6944 15.1661 18.7213 15.4144 18.8242C15.6627 18.927 15.8749 19.1012 16.0243 19.3247C16.1736 19.5481 16.2533 19.8108 16.2533 20.0796C16.2533 20.44 16.1101 20.7856 15.8553 21.0404C15.6004 21.2953 15.2548 21.4384 14.8944 21.4384Z" fill="#FF725E"/>
</svg>
