<svg width="30" height="30" viewBox="0 0 30 30" fill="none" xmlns="http://www.w3.org/2000/svg">
<path d="M25.8856 12.2435C25.4553 11.8019 25.0137 11.3376 24.8438 10.9413C24.6739 10.5449 24.6853 9.95612 24.6739 9.35596C24.6626 8.25757 24.64 7.00064 23.768 6.12871C22.8961 5.25679 21.6392 5.23414 20.5408 5.22282C19.9406 5.2115 19.3292 5.20017 18.9555 5.05297C18.5818 4.90576 18.0949 4.44149 17.6533 4.01119C16.8719 3.26383 15.9774 2.41455 14.7997 2.41455C13.622 2.41455 12.7275 3.26383 11.9461 4.01119C11.5045 4.44149 11.0402 4.88311 10.6439 5.05297C10.2476 5.22282 9.65875 5.2115 9.0586 5.22282C7.9602 5.23414 6.70327 5.25679 5.83135 6.12871C4.95943 7.00064 4.93678 8.25757 4.92546 9.35596C4.91413 9.95612 4.90281 10.5676 4.7556 10.9413C4.6084 11.315 4.14412 11.8019 3.71383 12.2435C2.96646 13.0248 2.11719 13.9194 2.11719 15.0971C2.11719 16.2747 2.96646 17.1693 3.71383 17.9506C4.14412 18.3923 4.58575 18.8565 4.7556 19.2528C4.92546 19.6492 4.91413 20.238 4.92546 20.8382C4.93678 21.9366 4.95943 23.1935 5.83135 24.0654C6.70327 24.9373 7.9602 24.96 9.0586 24.9713C9.65875 24.9826 10.2702 24.9939 10.6439 25.1412C11.0176 25.2884 11.5045 25.7526 11.9461 26.1829C12.7275 26.9303 13.622 27.7796 14.7997 27.7796C15.9774 27.7796 16.8719 26.9303 17.6533 26.1829C18.0949 25.7526 18.5592 25.311 18.9555 25.1412C19.3518 24.9713 19.9406 24.9826 20.5408 24.9713C21.6392 24.96 22.8961 24.9373 23.768 24.0654C24.64 23.1935 24.6626 21.9366 24.6739 20.8382C24.6853 20.238 24.6966 19.6265 24.8438 19.2528C24.991 18.8792 25.4553 18.3923 25.8856 17.9506C26.6329 17.1693 27.4822 16.2747 27.4822 15.0971C27.4822 13.9194 26.6329 13.0248 25.8856 12.2435ZM20.4049 13.0362L13.7692 19.3774C13.5977 19.5388 13.3706 19.628 13.1351 19.6265C12.9031 19.6274 12.6797 19.5381 12.5123 19.3774L9.19448 16.2068C9.10246 16.1265 9.02762 16.0284 8.97446 15.9185C8.9213 15.8085 8.89092 15.689 8.88515 15.567C8.87938 15.445 8.89833 15.3231 8.94087 15.2086C8.98341 15.0941 9.04866 14.9894 9.13269 14.9008C9.21673 14.8122 9.31781 14.7415 9.42987 14.6929C9.54193 14.6444 9.66265 14.619 9.78477 14.6183C9.90689 14.6176 10.0279 14.6416 10.1405 14.6888C10.2531 14.7361 10.355 14.8056 10.4401 14.8932L13.1351 17.4637L19.1593 11.7226C19.3355 11.5689 19.5642 11.4893 19.7977 11.5003C20.0312 11.5114 20.2514 11.6123 20.4122 11.7819C20.573 11.9515 20.6621 12.1767 20.6607 12.4105C20.6594 12.6442 20.5677 12.8684 20.4049 13.0362Z" fill="#02A7A7"/>
</svg>
